<svg data-v-fde0c5aa="" xmlns="http://www.w3.org/2000/svg" viewBox="0 0 300 300" class="iconLeft"><!----><defs data-v-fde0c5aa=""><!----></defs><rect data-v-fde0c5aa="" fill="transparent" x="0" y="0" width="300px" height="300px" class="logo-background-square"></rect><defs data-v-fde0c5aa=""><!----></defs><g data-v-fde0c5aa="" id="279aa501-0e38-46a5-9b2c-0fe7a50d8b78" fill="#000000" transform="matrix(2.0999239503372458,0,0,2.0999239503372458,90.64113783614995,129.34724736766657)"><path d="M9.17 10.25L8.25 10.12C7.99 11.80 7 12.84 5.05 12.84C2.70 12.84 1.60 10.98 1.60 8.69C1.60 6.61 2.56 4.48 5.19 4.48C7.08 4.48 8.04 5.70 8.20 7.01L9.11 6.90C8.99 5.38 7.81 3.64 5.21 3.64C1.99 3.64 0.66 6.17 0.66 8.71C0.66 11.61 2.27 13.66 5.05 13.66C7.52 13.66 8.86 12.33 9.17 10.25ZM11.27 13.50L11.27 9.95C11.27 9.14 11.35 8.60 11.61 8.15C11.87 7.67 12.42 7.13 13.26 7.13C13.50 7.13 13.75 7.17 13.96 7.22L14.13 6.43C13.89 6.36 13.58 6.30 13.33 6.30C12.17 6.30 11.45 7.11 11.27 7.94L11.27 6.51L10.43 6.51L10.43 13.50ZM21.29 10.01C21.29 7.70 19.80 6.33 17.92 6.33C15.99 6.33 14.36 7.71 14.36 9.98C14.36 12.26 15.76 13.66 17.89 13.66C19.75 13.66 21.29 12.26 21.29 10.01ZM20.43 10.00C20.43 11.87 19.21 12.87 17.89 12.87C16.44 12.87 15.25 11.87 15.25 9.95C15.25 8.05 16.52 7.13 17.91 7.13C19.22 7.13 20.43 8.06 20.43 10.00ZM22.25 12.43C22.89 13.17 24.01 13.66 25.26 13.66C26.98 13.66 28.01 12.91 28.01 11.62C28.01 10.47 27.36 9.95 25.94 9.66L25.03 9.48C23.80 9.24 23.55 8.89 23.55 8.25C23.55 7.71 23.97 7.13 25.24 7.13C26.07 7.13 26.74 7.38 27.31 7.88L27.85 7.20C27.19 6.58 26.31 6.33 25.31 6.33C23.52 6.33 22.67 7.29 22.67 8.32C22.67 9.41 23.28 9.98 24.54 10.23L25.41 10.42C26.78 10.70 27.16 11.06 27.16 11.69C27.16 12.32 26.68 12.88 25.34 12.88C24.39 12.88 23.46 12.53 22.83 11.77ZM28.77 12.43C29.41 13.17 30.53 13.66 31.78 13.66C33.50 13.66 34.54 12.91 34.54 11.62C34.54 10.47 33.88 9.95 32.47 9.66L31.56 9.48C30.32 9.24 30.07 8.89 30.07 8.25C30.07 7.71 30.49 7.13 31.77 7.13C32.59 7.13 33.26 7.38 33.84 7.88L34.37 7.20C33.71 6.58 32.83 6.33 31.84 6.33C30.04 6.33 29.19 7.29 29.19 8.32C29.19 9.41 29.81 9.98 31.07 10.23L31.93 10.42C33.31 10.70 33.68 11.06 33.68 11.69C33.68 12.32 33.21 12.88 31.86 12.88C30.91 12.88 29.99 12.53 29.36 11.77ZM37.16 13.50L37.16 9.20L41.54 9.20L41.54 8.34L37.16 8.34L37.16 4.68L41.86 4.68L41.86 3.82L36.27 3.82L36.27 13.50ZM43.97 13.50L43.97 6.51L43.13 6.51L43.13 13.50ZM44.03 5.11L44.03 3.82L43.08 3.82L43.08 5.11ZM49.43 13.44L49.25 12.73C49.06 12.81 48.71 12.89 48.36 12.89C47.84 12.89 47.57 12.67 47.46 12.32C47.39 12.08 47.38 11.70 47.38 11.20L47.38 7.24L49.15 7.24L49.15 6.51L47.38 6.51L47.38 4.62L46.52 4.62L46.52 6.51L45.43 6.51L45.43 7.24L46.52 7.24L46.52 11.27C46.52 11.84 46.54 12.26 46.65 12.68C46.84 13.38 47.46 13.66 48.16 13.66C48.68 13.66 49.13 13.57 49.43 13.44ZM54.29 13.50L54.29 8.88L60.03 8.88L60.03 13.50L60.94 13.50L60.94 3.82L60.03 3.82L60.03 8.01L54.29 8.01L54.29 3.82L53.41 3.82L53.41 13.50ZM69.23 11.38L68.40 11.20C68.15 12.15 67.31 12.88 66.05 12.88C65.02 12.88 63.53 12.32 63.52 10.19L69.26 10.19C69.26 7.62 68.04 6.33 65.98 6.33C64.12 6.33 62.62 7.71 62.62 9.97C62.62 12.19 63.85 13.66 66.02 13.66C67.73 13.66 68.89 12.71 69.23 11.38ZM63.52 9.51C63.66 7.91 64.72 7.11 65.97 7.11C67.63 7.11 68.26 8.19 68.36 9.51ZM71.72 13.50L71.72 3.82L70.88 3.82L70.88 13.50ZM74.80 16.03L74.80 12.21C75.21 13.05 76.06 13.66 77.41 13.66C79.30 13.66 80.65 12.35 80.65 9.98C80.65 7.69 79.41 6.33 77.57 6.33C76.13 6.33 75.15 7.10 74.80 7.95L74.80 6.51L73.96 6.51L73.96 16.03ZM74.79 9.95C74.79 8.16 75.91 7.08 77.38 7.08C78.76 7.08 79.79 8.13 79.79 10.00C79.79 11.91 78.68 12.88 77.34 12.88C75.89 12.88 74.79 12.05 74.79 9.95Z"></path></g><defs data-v-fde0c5aa=""><linearGradient data-v-fde0c5aa="" gradientTransform="rotate(25)" id="d6fd4a26-8c69-42dc-bee7-ce9857214ee5" x1="0%" y1="0%" x2="100%" y2="0%"><stop data-v-fde0c5aa="" offset="0%" stop-color="#000A68" stop-opacity="1"></stop><stop data-v-fde0c5aa="" offset="100%" stop-color="#00C4EE" stop-opacity="1"></stop></linearGradient></defs><g data-v-fde0c5aa="" id="55541e39-f126-43fe-a459-a1699a34a1da" stroke="none" fill="url(#d6fd4a26-8c69-42dc-bee7-ce9857214ee5)" transform="matrix(0.4108114494573181,0,0,0.4108114494573181,38.9729713763567,129.4594275271341)"><path d="M50.307 2.501C76.382 2.666 97.5 23.886 97.5 50S76.382 97.334 50.307 97.499L50 97.5C23.784 97.5 2.5 76.216 2.5 50S23.784 2.5 50 2.5l.307.001zm10.248 70.165A24.89 24.89 0 0 1 50 75a24.89 24.89 0 0 1-10.555-2.334l-5.556 16.669A42.317 42.317 0 0 0 50 92.5a42.325 42.325 0 0 0 16.112-3.165l-5.557-16.669zM50 30c-11.038 0-20 8.962-20 20s8.962 20 20 20l.258-.001C61.178 69.86 70 60.952 70 50c0-10.952-8.822-19.86-19.742-19.999L50 30zm-39.335 3.888A42.325 42.325 0 0 0 7.5 50a42.317 42.317 0 0 0 3.165 16.111l16.669-5.556A24.89 24.89 0 0 1 25 50c0-3.771.837-7.348 2.334-10.555l-16.669-5.557zm78.67 0l-16.669 5.557A24.89 24.89 0 0 1 75 50a24.89 24.89 0 0 1-2.334 10.555l16.669 5.556A42.317 42.317 0 0 0 92.5 50a42.325 42.325 0 0 0-3.165-16.112zM66.112 10.665A42.325 42.325 0 0 0 50 7.5a42.317 42.317 0 0 0-16.111 3.165l5.556 16.669A24.89 24.89 0 0 1 50 25c3.771 0 7.348.837 10.556 2.334l5.556-16.669z"></path></g><!----></svg>